<svg width="31" height="27" viewBox="0 0 31 27" fill="none" xmlns="http://www.w3.org/2000/svg">
<path d="M19.6016 9.94341C19.738 10.0223 19.8513 10.1358 19.93 10.2723C20.0087 10.4088 20.0502 10.5636 20.0502 10.7212C20.0502 10.8788 20.0087 11.0336 19.93 11.1701C19.8513 11.3066 19.738 11.42 19.6016 11.499L13.9558 14.7656C13.8194 14.8445 13.6647 14.8861 13.5072 14.8861C13.3497 14.8861 13.1949 14.8445 13.0586 14.7656C12.9222 14.6868 12.8091 14.5733 12.7306 14.4368C12.652 14.3002 12.6109 14.1454 12.6113 13.9879V7.45453C12.6111 7.29721 12.6522 7.1426 12.7307 7.00624C12.8091 6.86987 12.9221 6.75658 13.0582 6.67774C13.1944 6.5989 13.3489 6.5573 13.5062 6.55713C13.6635 6.55696 13.8181 6.59821 13.9544 6.67675L19.6016 9.94341Z" stroke="#FAE006" stroke-width="2" stroke-linecap="round" stroke-linejoin="round"/>
<path d="M8.44482 26H22.3337" stroke="#FAE006" stroke-width="2" stroke-linecap="round" stroke-linejoin="round"/>
<path d="M26.5 1H4.27778C2.74365 1 1.5 2.24365 1.5 3.77778V17.6667C1.5 19.2008 2.74365 20.4444 4.27778 20.4444H26.5C28.0341 20.4444 29.2778 19.2008 29.2778 17.6667V3.77778C29.2778 2.24365 28.0341 1 26.5 1Z" stroke="#FAE006" stroke-width="2" stroke-linecap="round" stroke-linejoin="round"/>
</svg>
