<svg width="32" height="29" viewBox="0 0 32 29" fill="none" xmlns="http://www.w3.org/2000/svg">
<path d="M21.7612 12.5799L24.6556 15.4743L30.4443 9.68555" stroke="#FAE006" stroke-width="2" stroke-linecap="round" stroke-linejoin="round"/>
<path d="M21.7606 27.0499V24.1555C21.7606 22.6202 21.1507 21.1478 20.0651 20.0622C18.9795 18.9766 17.5071 18.3667 15.9718 18.3667H7.28874C5.75347 18.3667 4.28108 18.9766 3.19548 20.0622C2.10988 21.1478 1.5 22.6202 1.5 24.1555V27.0499" stroke="#FAE006" stroke-width="2" stroke-linecap="round" stroke-linejoin="round"/>
<path d="M11.6313 12.5776C14.8283 12.5776 17.42 9.98585 17.42 6.78879C17.42 3.59173 14.8283 1 11.6313 1C8.43424 1 5.84253 3.59173 5.84253 6.78879C5.84253 9.98585 8.43424 12.5776 11.6313 12.5776Z" stroke="#FAE006" stroke-width="2" stroke-linecap="round" stroke-linejoin="round"/>
</svg>
