<svg width="30" height="28" viewBox="0 0 30 28" fill="none" xmlns="http://www.w3.org/2000/svg">
<path d="M13.8154 1V3.73675" stroke="#FAE006" stroke-width="2" stroke-linecap="round" stroke-linejoin="round"/>
<path d="M5.60474 1V3.73675" stroke="#FAE006" stroke-width="2" stroke-linecap="round" stroke-linejoin="round"/>
<path d="M5.60526 2.36914H4.23684C3.51098 2.36914 2.81486 2.65748 2.3016 3.17072C1.78834 3.68396 1.5 4.38006 1.5 5.1059V10.5794C1.5 12.7569 2.36503 14.8452 3.9048 16.3849C5.44458 17.9247 7.53295 18.7897 9.71052 18.7897C11.8881 18.7897 13.9765 17.9247 15.5162 16.3849C17.056 14.8452 17.921 12.7569 17.921 10.5794V5.1059C17.921 4.38006 17.6327 3.68396 17.1194 3.17072C16.6062 2.65748 15.9101 2.36914 15.1842 2.36914H13.8158" stroke="#FAE006" stroke-width="2" stroke-linecap="round" stroke-linejoin="round"/>
<path d="M9.71069 18.7897C9.71069 20.9672 10.5757 23.0555 12.1155 24.5952C13.6553 26.135 15.7436 27 17.9212 27C20.0988 27 22.1872 26.135 23.7269 24.5952C25.2667 23.0555 26.1317 20.9672 26.1317 18.7897V14.6846" stroke="#FAE006" stroke-width="2" stroke-linecap="round" stroke-linejoin="round"/>
<path d="M26.1316 14.6849C27.6431 14.6849 28.8685 13.4596 28.8685 11.9482C28.8685 10.4367 27.6431 9.21143 26.1316 9.21143C24.6201 9.21143 23.3948 10.4367 23.3948 11.9482C23.3948 13.4596 24.6201 14.6849 26.1316 14.6849Z" stroke="#FAE006" stroke-width="2" stroke-linecap="round" stroke-linejoin="round"/>
</svg>
